<svg width="58" height="49" viewBox="0 0 58 49" fill="none" xmlns="http://www.w3.org/2000/svg">
<path fill-rule="evenodd" clip-rule="evenodd" d="M0 2C0 0.89543 0.89543 0 2 0H13.138C14.0384 0 14.8277 0.601582 15.0665 1.46969L24.0868 34.2709H49.9792C51.0838 34.2709 51.9792 35.1663 51.9792 36.2709C51.9792 37.3755 51.0838 38.2709 49.9792 38.2709H22.5625C21.6622 38.2709 20.8729 37.6693 20.6341 36.8012L11.6138 4H2C0.89543 4 0 3.10457 0 2Z" fill="white"/>
<path fill-rule="evenodd" clip-rule="evenodd" d="M13.5292 6.975C13.8125 6.59729 14.2571 6.375 14.7292 6.375H55.8543C56.3023 6.375 56.7268 6.57523 57.0117 6.92092C57.2967 7.2666 57.4122 7.72155 57.3267 8.1613L53.8996 25.7863C53.7626 26.4912 53.1452 27 52.4272 27H19.8698C19.2032 27 18.6165 26.56 18.4298 25.92L13.2892 8.295C13.157 7.84175 13.2459 7.35271 13.5292 6.975ZM16.7292 9.375L20.9948 24H51.1908L54.0345 9.375H16.7292Z" fill="white"/>
<path d="M30.3959 45.5731C30.3959 47.4658 28.8615 49.0002 26.9688 49.0002C25.076 49.0002 23.5417 47.4658 23.5417 45.5731C23.5417 43.6804 25.076 42.146 26.9688 42.146C28.8615 42.146 30.3959 43.6804 30.3959 45.5731Z" fill="white"/>
<path d="M49.0001 45.5731C49.0001 47.4658 47.4657 49.0002 45.573 49.0002C43.6802 49.0002 42.1459 47.4658 42.1459 45.5731C42.1459 43.6804 43.6802 42.146 45.573 42.146C47.4657 42.146 49.0001 43.6804 49.0001 45.5731Z" fill="white"/>
</svg>
