<svg width="22" height="18" viewBox="0 0 22 18" fill="none" xmlns="http://www.w3.org/2000/svg">
<path d="M3.6 0C2.64522 0 1.72955 0.379285 1.05442 1.05442C0.379284 1.72955 0 2.64522 0 3.6V3.9618L10.8 9.7776L21.6 3.9636V3.6C21.6 2.64522 21.2207 1.72955 20.5456 1.05442C19.8705 0.379285 18.9548 0 18 0H3.6ZM21.6 6.0066L11.2266 11.592C11.0955 11.6626 10.9489 11.6995 10.8 11.6995C10.6511 11.6995 10.5045 11.6626 10.3734 11.592L0 6.0066V14.4C0 15.3548 0.379284 16.2705 1.05442 16.9456C1.72955 17.6207 2.64522 18 3.6 18H18C18.9548 18 19.8705 17.6207 20.5456 16.9456C21.2207 16.2705 21.6 15.3548 21.6 14.4V6.0066Z" fill="white"/>
</svg>
