<svg width="70" height="61" viewBox="0 0 70 61" fill="none" xmlns="http://www.w3.org/2000/svg">
<path d="M6.392 49.096C7.032 49.6507 7.82133 50.12 8.76 50.504C9.69867 50.9307 10.6373 51.144 11.576 51.144C12.5573 51.144 13.496 50.76 14.392 49.992C15.288 49.224 15.736 47.9013 15.736 46.024V0.199997H27.384V48.456C27.384 50.5893 27 52.4027 26.232 53.896C25.464 55.432 24.3973 56.648 23.032 57.544C21.6667 58.4827 20.088 59.1653 18.296 59.592C16.504 60.0613 14.6267 60.296 12.664 60.296C11 60.296 9.4 60.104 7.864 59.72C6.328 59.336 4.94133 58.8667 3.704 58.312C2.46667 57.8 1.4 57.2453 0.504 56.648L6.392 49.096ZM36.861 0.199997H47.677V45H36.861V0.199997ZM43.645 9.096V0.199997H52.413C56.2103 0.199997 59.389 0.79733 61.949 1.992C64.5517 3.144 66.5143 4.808 67.837 6.984C69.1597 9.16 69.821 11.784 69.821 14.856C69.821 17.8427 69.1597 20.4453 67.837 22.664C66.5143 24.84 64.5517 26.5253 61.949 27.72C59.389 28.872 56.2103 29.448 52.413 29.448H43.645V20.552H52.413C54.589 20.552 56.2957 20.0613 57.533 19.08C58.7703 18.0987 59.389 16.6907 59.389 14.856C59.389 12.9787 58.7703 11.5493 57.533 10.568C56.2957 9.58666 54.589 9.096 52.413 9.096H43.645Z" fill="white"/>
</svg>
