<svg width="18" height="26" viewBox="0 0 18 26" fill="none" xmlns="http://www.w3.org/2000/svg">
<path d="M8.07506 24.5614C1.26422 14.2487 0 13.1903 0 9.40019C0 4.20859 4.02942 0 9 0C13.9706 0 18 4.20859 18 9.40019C18 13.1903 16.7358 14.2487 9.92494 24.5614C9.47798 25.2358 8.52197 25.2358 8.07506 24.5614ZM9 13.3169C11.0711 13.3169 12.75 11.5634 12.75 9.40019C12.75 7.23702 11.0711 5.48345 9 5.48345C6.92892 5.48345 5.25 7.23702 5.25 9.40019C5.25 11.5634 6.92892 13.3169 9 13.3169Z" fill="white"/>
</svg>
