<svg width="23" height="23" viewBox="0 0 23 23" fill="none" xmlns="http://www.w3.org/2000/svg">
<path d="M21.6149 18.0165L16.5904 13.2447C16.3529 13.0192 16.0408 12.8989 15.72 12.9093C15.3992 12.9197 15.0948 13.0598 14.8711 13.3002L11.9133 16.4775C11.2013 16.3355 9.76999 15.8694 8.29663 14.3343C6.82328 12.7941 6.37707 11.2952 6.24481 10.5567L9.28423 7.46586C9.51464 7.23234 9.64903 6.91434 9.65895 6.57916C9.66887 6.24398 9.55354 5.91792 9.33738 5.66998L4.77022 0.423073C4.55396 0.174357 4.2534 0.0234927 3.93237 0.00251989C3.61134 -0.018453 3.29513 0.0921183 3.05089 0.31075L0.368688 2.71343C0.154991 2.93745 0.0274419 3.2356 0.0102368 3.55133C-0.00830375 3.8741 -0.36181 11.5198 5.31407 17.451C10.2656 22.6217 16.4681 23 18.1763 23C18.426 23 18.5792 22.9923 18.62 22.9897C18.9222 22.972 19.2075 22.8382 19.421 22.614L21.72 19.8111C21.9301 19.5568 22.0368 19.2267 22.0171 18.8914C21.9975 18.5561 21.8532 18.2421 21.6149 18.0165Z" fill="white"/>
</svg>
