<svg width="45" height="45" viewBox="0 0 45 45" fill="none" xmlns="http://www.w3.org/2000/svg">
<path d="M15.84 43.965C18 44.6175 20.1825 45 22.5 45C28.4674 45 34.1903 42.6295 38.4099 38.4099C42.6295 34.1903 45 28.4674 45 22.5C45 19.5453 44.418 16.6194 43.2873 13.8896C42.1566 11.1598 40.4992 8.67942 38.4099 6.5901C36.3206 4.50078 33.8402 2.84344 31.1104 1.71271C28.3806 0.58198 25.4547 0 22.5 0C19.5453 0 16.6194 0.58198 13.8896 1.71271C11.1598 2.84344 8.67942 4.50078 6.5901 6.5901C2.37053 10.8097 0 16.5326 0 22.5C0 32.0625 6.0075 40.275 14.49 43.515C14.2875 41.76 14.085 38.8575 14.49 36.855L17.0775 25.74C17.0775 25.74 16.425 24.435 16.425 22.365C16.425 19.26 18.36 16.9425 20.565 16.9425C22.5 16.9425 23.4 18.36 23.4 20.1825C23.4 22.1175 22.1175 24.885 21.465 27.54C21.0825 29.745 22.635 31.68 24.885 31.68C28.89 31.68 31.995 27.405 31.995 21.375C31.995 15.975 28.125 12.285 22.5675 12.285C16.2225 12.285 12.4875 17.01 12.4875 21.9825C12.4875 23.9175 13.1175 25.875 14.1525 27.1575C14.355 27.2925 14.355 27.4725 14.2875 27.81L13.635 30.2625C13.635 30.645 13.3875 30.78 13.005 30.51C10.125 29.25 8.46 25.155 8.46 21.8475C8.46 14.7375 13.5 8.28 23.22 8.28C30.96 8.28 36.99 13.8375 36.99 21.2175C36.99 28.9575 32.1975 35.1675 25.335 35.1675C23.1525 35.1675 21.015 33.9975 20.25 32.625L18.7425 37.9575C18.225 39.8925 16.8075 42.48 15.84 44.0325V43.965Z" fill="white"/>
</svg>
