<svg width="45" height="46" viewBox="0 0 45 46" fill="none" xmlns="http://www.w3.org/2000/svg">
<path d="M22.5 0.32666C10.0734 0.32666 0 10.4001 0 22.8267C0 35.2532 10.0734 45.3267 22.5 45.3267C34.9266 45.3267 45 35.2532 45 22.8267C45 10.4001 34.9266 0.32666 22.5 0.32666ZM31.1531 25.7118C31.1531 25.7118 33.143 27.6759 33.6328 28.5876C33.6469 28.6063 33.6539 28.6251 33.6586 28.6345C33.8578 28.9696 33.9047 29.2298 33.8063 29.4243C33.6422 29.7478 33.0797 29.9071 32.8875 29.9212H29.3719C29.1281 29.9212 28.6172 29.8579 27.9984 29.4313C27.5227 29.0985 27.0539 28.5524 26.5969 28.0204C25.9148 27.2282 25.3242 26.5438 24.7289 26.5438C24.6533 26.5437 24.5781 26.5556 24.5063 26.579C24.0563 26.7243 23.4797 27.3665 23.4797 29.0774C23.4797 29.6118 23.0578 29.9188 22.7602 29.9188H21.15C20.6016 29.9188 17.7445 29.7267 15.2133 27.0571C12.1148 23.7876 9.32578 17.2298 9.30234 17.1688C9.12656 16.7446 9.48984 16.5173 9.88594 16.5173H13.4367C13.9102 16.5173 14.0648 16.8056 14.1727 17.061C14.2992 17.3587 14.7633 18.5423 15.525 19.8735C16.7602 22.0438 17.5172 22.9251 18.1242 22.9251C18.238 22.9238 18.3498 22.8948 18.45 22.8407C19.2422 22.4001 19.0945 19.5759 19.0594 18.9899C19.0594 18.8798 19.057 17.7267 18.6516 17.1735C18.3609 16.7728 17.8664 16.6204 17.5664 16.5642C17.6878 16.3966 17.8478 16.2607 18.0328 16.1681C18.5766 15.8962 19.5563 15.8563 20.5289 15.8563H21.0703C22.125 15.8704 22.3969 15.9384 22.7789 16.0345C23.5523 16.2196 23.5688 16.7188 23.5008 18.4274C23.4797 18.9126 23.4586 19.461 23.4586 20.1079C23.4586 20.2485 23.4516 20.3985 23.4516 20.5579C23.4281 21.4274 23.4 22.4142 24.0141 22.8196C24.0942 22.8699 24.1867 22.8966 24.2813 22.897C24.4945 22.897 25.1367 22.897 26.8758 19.9134C27.4121 18.953 27.8782 17.9551 28.2703 16.9274C28.3055 16.8665 28.4086 16.679 28.5305 16.6063C28.6204 16.5605 28.7201 16.5372 28.8211 16.5384H32.9953C33.45 16.5384 33.7617 16.6063 33.8203 16.7821C33.9234 17.061 33.8016 17.9118 31.8961 20.4923L31.0453 21.6149C29.318 23.879 29.318 23.9938 31.1531 25.7118Z" fill="white"/>
</svg>
