<svg width="45" height="46" viewBox="0 0 45 46" fill="none" xmlns="http://www.w3.org/2000/svg">
<path d="M26.257 22.4353L20.993 19.979C20.5336 19.7657 20.1562 20.0048 20.1562 20.5134V25.1399C20.1562 25.6485 20.5336 25.8876 20.993 25.6743L26.2547 23.2181C26.7164 23.0024 26.7164 22.6509 26.257 22.4353ZM22.5 0.32666C10.0734 0.32666 0 10.4001 0 22.8267C0 35.2532 10.0734 45.3267 22.5 45.3267C34.9266 45.3267 45 35.2532 45 22.8267C45 10.4001 34.9266 0.32666 22.5 0.32666ZM22.5 31.9673C10.9828 31.9673 10.7812 30.929 10.7812 22.8267C10.7812 14.7243 10.9828 13.686 22.5 13.686C34.0172 13.686 34.2188 14.7243 34.2188 22.8267C34.2188 30.929 34.0172 31.9673 22.5 31.9673Z" fill="white"/>
</svg>
